<svg xmlns="http://www.w3.org/2000/svg" fill="none" height="14" viewBox="0 0 14 14" width="14"><path d="M9.995 1.209H1.011C0.744565 1.21003 0.489219 1.31578 0.300072 1.50343C0.110926 1.69108 0.003148 1.94558 0 2.212L0 2.619C0.000529748 2.88679 0.107279 3.14343 0.296821 3.33259C0.486363 3.52176 0.743212 3.628 1.011 3.628H9.995C10.2628 3.628 10.5196 3.52176 10.7092 3.33259C10.8987 3.14343 11.0055 2.88679 11.006 2.619V2.211C11.0026 1.94476 10.8947 1.69051 10.7056 1.50308C10.5165 1.31564 10.2613 1.21003 9.995 1.209Z" fill="#f74a00"/><path d="M12.99 5.78999H1.011C0.744644 5.79128 0.489447 5.89712 0.300356 6.08471C0.111265 6.27231 0.00340502 6.52666 0 6.79299L0 7.19999C0.000265045 7.46795 0.106898 7.72485 0.296468 7.91423C0.486039 8.10361 0.743039 8.20999 1.011 8.20999H12.99C13.1226 8.20999 13.254 8.18387 13.3765 8.13311C13.499 8.08235 13.6104 8.00796 13.7042 7.91417C13.798 7.82038 13.8724 7.70904 13.9231 7.5865C13.9739 7.46396 14 7.33263 14 7.19999V6.79199C13.9969 6.52584 13.8892 6.2716 13.7002 6.08413C13.5113 5.89667 13.2562 5.79102 12.99 5.78999Z" fill="#f74a00"/><path d="M6.5 10.372H1.011C0.745077 10.373 0.490175 10.4784 0.301112 10.6654C0.11205 10.8524 0.00392797 11.1061 0 11.372L0 11.778C0.000265045 12.046 0.106898 12.3029 0.296468 12.4922C0.486039 12.6816 0.743039 12.788 1.011 12.788H6.5C6.76796 12.788 7.02496 12.6816 7.21453 12.4922C7.4041 12.3029 7.51074 12.046 7.511 11.778V11.371C7.50681 11.1053 7.39858 10.8518 7.20954 10.665C7.02051 10.4782 6.76575 10.373 6.5 10.372Z" fill="#f74a00"/></svg>